<svg width="58" height="58" viewBox="0 0 58 58" fill="none" xmlns="http://www.w3.org/2000/svg">
<g clip-path="url(#clip0_34_12)">
<path d="M7.25001 29L16.3125 19.9375L18.125 21.75L12.1438 27.7312H45.8562L39.875 21.75L41.6875 19.9375L50.75 29L41.6875 38.0625L39.875 36.25L45.8562 30.2687H12.1438L18.125 36.25L16.3125 38.0625L7.25001 29Z" fill="#C59A78"/>
</g>
<g clip-path="url(#clip1_34_12)">
<path d="M29 50.75L19.9375 41.6875L21.75 39.875L27.7312 45.8562V12.1438L21.75 18.125L19.9375 16.3125L29 7.25001L38.0625 16.3125L36.25 18.125L30.2687 12.1438V45.8562L36.25 39.875L38.0625 41.6875L29 50.75Z" fill="url(#paint0_linear_34_12)"/>
</g>
<defs>
<linearGradient id="paint0_linear_34_12" x1="18.125" y1="18.125" x2="39.875" y2="39.875" gradientUnits="userSpaceOnUse">
<stop stop-color="#C59A78"/>
<stop offset="1" stop-color="#886040"/>
</linearGradient>
<clipPath id="clip0_34_12">
<rect width="41.0122" height="41.0122" fill="white" transform="translate(29) rotate(45)"/>
</clipPath>
<clipPath id="clip1_34_12">
<rect width="41.0122" height="41.0122" fill="white" transform="translate(0 29) rotate(-45)"/>
</clipPath>
</defs>
</svg>
