<svg width="21" height="26" viewBox="0 0 21 26" fill="none" xmlns="http://www.w3.org/2000/svg">
<path d="M10.5 16.575C11.6156 16.575 12.6273 16.315 13.5352 15.795C14.443 15.275 15.1703 14.5817 15.7172 13.715C14.9734 13.1517 14.1641 12.7292 13.2891 12.4475C12.4141 12.1658 11.4844 12.025 10.5 12.025C9.51562 12.025 8.58594 12.1658 7.71094 12.4475C6.83594 12.7292 6.02656 13.1517 5.28281 13.715C5.82969 14.5817 6.55703 15.275 7.46484 15.795C8.37266 16.315 9.38437 16.575 10.5 16.575ZM10.5 10.075C11.1344 10.075 11.6758 9.85292 12.1242 9.40875C12.5727 8.96458 12.7969 8.42833 12.7969 7.8C12.7969 7.17167 12.5727 6.63542 12.1242 6.19125C11.6758 5.74708 11.1344 5.525 10.5 5.525C9.86563 5.525 9.32422 5.74708 8.87578 6.19125C8.42734 6.63542 8.20312 7.17167 8.20312 7.8C8.20312 8.42833 8.42734 8.96458 8.87578 9.40875C9.32422 9.85292 9.86563 10.075 10.5 10.075ZM10.5 23.4325C13.4094 20.8108 15.5586 18.4329 16.9477 16.2987C18.3367 14.1646 19.0312 12.285 19.0312 10.66C19.0312 8.10333 18.2055 6.0125 16.5539 4.3875C14.9023 2.7625 12.8844 1.95 10.5 1.95C8.11563 1.95 6.09766 2.7625 4.44609 4.3875C2.79453 6.0125 1.96875 8.10333 1.96875 10.66C1.96875 12.285 2.67969 14.1646 4.10156 16.2987C5.52344 18.4329 7.65625 20.8108 10.5 23.4325ZM10.5 26C6.97813 23.0317 4.34766 20.2746 2.60859 17.7287C0.869531 15.1829 0 12.8267 0 10.66C0 7.41 1.05547 4.82083 3.16641 2.8925C5.27734 0.964166 7.72188 0 10.5 0C13.2781 0 15.7227 0.964166 17.8336 2.8925C19.9445 4.82083 21 7.41 21 10.66C21 12.8267 20.1305 15.1829 18.3914 17.7287C16.6523 20.2746 14.0219 23.0317 10.5 26Z" fill="#DDDDDD"/>
</svg>
