<svg width="40" height="38" viewBox="0 0 40 38" fill="none" xmlns="http://www.w3.org/2000/svg">
<path d="M0 38V35H18.5V10.8C17.6333 10.5 16.8583 10.0083 16.175 9.325C15.4917 8.64167 15 7.86667 14.7 7H6.75L13 22.1C12.9667 23.6 12.325 24.875 11.075 25.925C9.825 26.975 8.3 27.5 6.5 27.5C4.7 27.5 3.175 26.975 1.925 25.925C0.675 24.875 0.0333333 23.6 0 22.1L6.25 7H2V4H14.7C15.1 2.83333 15.7833 1.875 16.75 1.125C17.7167 0.375 18.8 0 20 0C21.2 0 22.2833 0.375 23.25 1.125C24.2167 1.875 24.9 2.83333 25.3 4H38V7H33.75L40 22.1C39.9667 23.6 39.325 24.875 38.075 25.925C36.825 26.975 35.3 27.5 33.5 27.5C31.7 27.5 30.175 26.975 28.925 25.925C27.675 24.875 27.0333 23.6 27 22.1L33.25 7H25.3C25 7.86667 24.5083 8.64167 23.825 9.325C23.1417 10.0083 22.3667 10.5 21.5 10.8V35H40V38H0ZM29.75 22H37.25L33.5 12.8L29.75 22ZM2.75 22H10.25L6.5 12.8L2.75 22ZM20 8C20.7 8 21.2917 7.75 21.775 7.25C22.2583 6.75 22.5 6.16667 22.5 5.5C22.5 4.8 22.2583 4.20833 21.775 3.725C21.2917 3.24167 20.7 3 20 3C19.3333 3 18.75 3.24167 18.25 3.725C17.75 4.20833 17.5 4.8 17.5 5.5C17.5 6.16667 17.75 6.75 18.25 7.25C18.75 7.75 19.3333 8 20 8Z" fill="url(#paint0_linear_34_11)"/>
<defs>
<linearGradient id="paint0_linear_34_11" x1="20" y1="0" x2="20" y2="38" gradientUnits="userSpaceOnUse">
<stop stop-color="#C59A78"/>
<stop offset="1" stop-color="#886040"/>
</linearGradient>
</defs>
</svg>
